<svg xmlns="http://www.w3.org/2000/svg" width="600" height="400" viewBox="0 0 600 400"><rect width="100%" height="100%" fill="#EEE"/><path fill="#AAA" d="m129.985 184.02-2.11-3.36q1.82-1.48 4.14-2.48 2.32-1.01 5.49-1.01 2.24 0 4.03.61 1.79.6 3.04 1.71 1.25 1.1 1.9 2.65.66 1.56.66 3.44 0 1.76-.45 3.03-.45 1.26-1.12 2.21-.67.94-1.47 1.61t-1.54 1.27q-.73.59-1.29 1.16-.56.58-.72 1.28l-.71 3.08h-5.4l-.55-3.65q-.19-1.19.18-2.03.37-.85 1.02-1.54.66-.69 1.47-1.28.82-.59 1.54-1.25.72-.65 1.22-1.47.49-.82.49-1.94t-.77-1.82q-.76-.7-2.24-.7-1.15 0-1.93.22-.79.22-1.36.48-.58.26-1.01.48t-.91.22q-1.09 0-1.6-.92m2.56 23.32q0-.89.33-1.69.34-.8.92-1.39.57-.6 1.37-.93.8-.34 1.73-.34.9 0 1.68.34.78.33 1.38.93.59.59.92 1.39.34.8.34 1.69 0 .93-.34 1.72-.33.78-.92 1.36-.6.57-1.38.91-.78.33-1.68.33-.93 0-1.73-.33-.8-.34-1.37-.91-.58-.58-.92-1.36-.33-.79-.33-1.72m-10.98 10.02v-46.27h32.32v46.27zm2.08-44.1v41.89h27.94v-41.89zm41.35 10.76-2.12-3.36q1.83-1.48 4.15-2.48 2.32-1.01 5.49-1.01 2.24 0 4.03.61 1.79.6 3.04 1.71 1.25 1.1 1.9 2.65.66 1.56.66 3.44 0 1.76-.45 3.03-.45 1.26-1.12 2.21-.67.94-1.47 1.61t-1.54 1.27q-.73.59-1.29 1.16-.56.58-.72 1.28l-.71 3.08h-5.41l-.54-3.65q-.19-1.19.18-2.03.36-.85 1.02-1.54t1.47-1.28q.82-.59 1.54-1.25.72-.65 1.21-1.47.5-.82.5-1.94t-.77-1.82-2.24-.7q-1.15 0-1.93.22-.79.22-1.36.48-.58.26-1.01.48t-.91.22q-1.09 0-1.6-.92m2.56 23.32q0-.89.33-1.69.34-.8.91-1.39.58-.6 1.38-.93.8-.34 1.73-.34.89 0 1.68.34.78.33 1.37.93.6.59.93 1.39.34.8.34 1.69 0 .93-.34 1.72-.33.78-.93 1.36-.59.57-1.37.91-.79.33-1.68.33-.93 0-1.73-.33-.8-.34-1.38-.91-.57-.58-.91-1.36-.33-.79-.33-1.72m-10.98 10.02v-46.27h32.32v46.27zm2.08-44.1v41.89h27.94v-41.89zm83.71-2.17h7.59v46.27h-4.42q-1.02 0-1.71-.34-.69-.33-1.33-1.13l-24.16-30.85q.19 2.11.19 3.9v28.42h-7.58v-46.27h4.51q.54 0 .94.05.4.04.71.19.3.14.59.41.29.28.64.72l24.26 30.98q-.1-1.12-.16-2.21-.07-1.09-.07-2.01zm31.17 12.93q3.65 0 6.64 1.18t5.12 3.36 3.28 5.31q1.15 3.14 1.15 7.01 0 3.9-1.15 7.04t-3.28 5.34q-2.13 2.21-5.12 3.4-2.99 1.18-6.64 1.18-3.68 0-6.69-1.18-3.01-1.19-5.13-3.4-2.13-2.2-3.3-5.34t-1.17-7.04q0-3.87 1.17-7.01 1.17-3.13 3.3-5.31 2.12-2.18 5.13-3.36t6.69-1.18m0 27.74q4.1 0 6.06-2.75 1.97-2.75 1.97-8.07 0-5.31-1.97-8.09-1.96-2.79-6.06-2.79-4.16 0-6.16 2.8t-2 8.08 2 8.05 6.16 2.77m47.68-40.67v46.27h-8.64v-46.27zm16.99 46.27h-7.9v-32.83h4.83q1.54 0 2.02 1.44l.51 2.43q.86-.96 1.81-1.76.94-.8 2.01-1.38 1.07-.57 2.31-.91 1.23-.33 2.7-.33 3.1 0 5.1 1.68t3 4.46q.76-1.63 1.92-2.8 1.15-1.17 2.52-1.9 1.38-.74 2.93-1.09t3.12-.35q2.72 0 4.83.83 2.12.83 3.56 2.43t2.19 3.9q.75 2.31.75 5.28v20.9h-7.9v-20.9q0-3.13-1.38-4.72-1.38-1.58-4.03-1.58-1.22 0-2.26.42-1.04.41-1.82 1.2-.79.78-1.23 1.96-.45 1.19-.45 2.72v20.9h-7.94v-20.9q0-3.29-1.33-4.8-1.32-1.5-3.88-1.5-1.73 0-3.22.85t-2.77 2.32zm63.04-8.48v-5.54q-3.42.16-5.76.6-2.33.43-3.74 1.1t-2.02 1.57q-.61.89-.61 1.95 0 2.08 1.24 2.98 1.23.89 3.21.89 2.43 0 4.21-.88t3.47-2.67m-16.7-17.25-1.41-2.53q5.66-5.18 13.63-5.18 2.88 0 5.15.94 2.28.95 3.84 2.63 1.57 1.68 2.39 4.01.81 2.34.81 5.12v20.74h-3.58q-1.12 0-1.73-.34-.61-.33-.96-1.36l-.7-2.36q-1.25 1.12-2.43 1.96-1.19.85-2.47 1.43-1.28.57-2.73.88-1.46.3-3.22.3-2.08 0-3.84-.56t-3.04-1.68-1.98-2.78q-.71-1.67-.71-3.87 0-1.25.42-2.48.41-1.24 1.36-2.36.94-1.12 2.45-2.11 1.5-.99 3.69-1.73 2.19-.73 5.11-1.2 2.91-.46 6.65-.56v-1.92q0-3.29-1.41-4.88-1.4-1.58-4.06-1.58-1.92 0-3.18.45-1.27.45-2.23 1.01t-1.74 1q-.79.45-1.75.45-.83 0-1.4-.43-.58-.43-.93-1.01m43.84 8.51q1.47 0 2.56-.4t1.81-1.1 1.08-1.7q.37-.99.37-2.17 0-2.43-1.45-3.86-1.46-1.42-4.37-1.42t-4.37 1.42q-1.46 1.43-1.46 3.86 0 1.15.37 2.14t1.09 1.71 1.82 1.12q1.11.4 2.55.4m8.93 18.69q0-.96-.58-1.57-.58-.6-1.57-.94t-2.32-.5-2.81-.24q-1.49-.08-3.08-.14-1.58-.06-3.08-.26-1.32.74-2.13 1.73-.82.99-.82 2.31 0 .86.43 1.61.44.75 1.38 1.3.94.54 2.45.85 1.5.3 3.68.3 2.21 0 3.81-.34 1.6-.33 2.64-.92 1.04-.6 1.52-1.41.48-.82.48-1.78m-1.57-33.18h9.44v2.94q0 1.41-1.7 1.73l-2.94.54q.67 1.7.67 3.72 0 2.43-.98 4.4-.97 1.96-2.7 3.34t-4.08 2.13-5.07.75q-.96 0-1.86-.1-.89-.09-1.76-.25-1.53.93-1.53 2.08 0 .99.91 1.45.91.47 2.41.66 1.51.19 3.43.24t3.93.21q2.02.16 3.94.56t3.42 1.26q1.51.87 2.42 2.35.91 1.49.91 3.83 0 2.17-1.07 4.22t-3.1 3.65q-2.04 1.6-5 2.58-2.96.97-6.73.97-3.71 0-6.47-.72-2.75-.72-4.57-1.92-1.83-1.2-2.72-2.77-.9-1.56-.9-3.26 0-2.3 1.39-3.86 1.4-1.55 3.83-2.48-1.31-.67-2.08-1.79t-.77-2.94q0-.74.27-1.52.27-.79.8-1.55.53-.77 1.33-1.46t1.89-1.23q-2.5-1.35-3.92-3.59-1.43-2.24-1.43-5.24 0-2.44.98-4.4.98-1.97 2.72-3.36 1.74-1.4 4.13-2.13 2.38-.74 5.2-.74 2.11 0 3.97.43 1.85.44 3.39 1.27m20.67 11.52h14.91q0-1.54-.43-2.9t-1.3-2.38q-.86-1.03-2.19-1.62t-3.09-.59q-3.42 0-5.39 1.95t-2.51 5.54m20.16 4.77h-20.32q.19 2.52.9 4.36.7 1.84 1.85 3.04t2.74 1.8q1.58.59 3.5.59t3.31-.45q1.4-.45 2.44-.99 1.04-.55 1.82-.99.78-.45 1.52-.45.99 0 1.47.73l2.27 2.88q-1.31 1.54-2.94 2.58t-3.41 1.66q-1.77.63-3.61.88-1.84.26-3.57.26-3.43 0-6.37-1.14-2.94-1.13-5.12-3.36-2.18-2.22-3.42-5.5-1.25-3.28-1.25-7.6 0-3.36 1.09-6.32 1.08-2.96 3.12-5.15 2.03-2.19 4.96-3.47 2.92-1.28 6.6-1.28 3.11 0 5.73.99 2.63.99 4.51 2.89 1.89 1.91 2.96 4.68 1.08 2.76 1.08 6.32 0 1.79-.39 2.41-.38.63-1.47.63"/></svg>