<svg id="visual" viewBox="0 0 675 900" width="675" height="900" xmlns="http://www.w3.org/2000/svg" xmlns:xlink="http://www.w3.org/1999/xlink" version="1.1"><path d="M0 145L61 145L61 73L123 73L123 136L184 136L184 181L245 181L245 82L307 82L307 73L368 73L368 145L430 145L430 127L491 127L491 127L552 127L552 181L614 181L614 82L675 82L675 163L675 0L675 0L614 0L614 0L552 0L552 0L491 0L491 0L430 0L430 0L368 0L368 0L307 0L307 0L245 0L245 0L184 0L184 0L123 0L123 0L61 0L61 0L0 0Z" fill="#1e88e5"></path><path d="M0 415L61 415L61 415L123 415L123 433L184 433L184 334L245 334L245 406L307 406L307 343L368 343L368 289L430 289L430 307L491 307L491 244L552 244L552 370L614 370L614 424L675 424L675 424L675 161L675 80L614 80L614 179L552 179L552 125L491 125L491 125L430 125L430 143L368 143L368 71L307 71L307 80L245 80L245 179L184 179L184 134L123 134L123 71L61 71L61 143L0 143Z" fill="#1b7fdc"></path><path d="M0 559L61 559L61 514L123 514L123 532L184 532L184 442L245 442L245 523L307 523L307 397L368 397L368 433L430 433L430 460L491 460L491 388L552 388L552 442L614 442L614 514L675 514L675 532L675 422L675 422L614 422L614 368L552 368L552 242L491 242L491 305L430 305L430 287L368 287L368 341L307 341L307 404L245 404L245 332L184 332L184 431L123 431L123 413L61 413L61 413L0 413Z" fill="#1976d3"></path><path d="M0 721L61 721L61 676L123 676L123 685L184 685L184 775L245 775L245 775L307 775L307 775L368 775L368 820L430 820L430 703L491 703L491 766L552 766L552 721L614 721L614 730L675 730L675 829L675 530L675 512L614 512L614 440L552 440L552 386L491 386L491 458L430 458L430 431L368 431L368 395L307 395L307 521L245 521L245 440L184 440L184 530L123 530L123 512L61 512L61 557L0 557Z" fill="#176dc9"></path><path d="M0 901L61 901L61 901L123 901L123 901L184 901L184 901L245 901L245 901L307 901L307 901L368 901L368 901L430 901L430 901L491 901L491 901L552 901L552 901L614 901L614 901L675 901L675 901L675 827L675 728L614 728L614 719L552 719L552 764L491 764L491 701L430 701L430 818L368 818L368 773L307 773L307 773L245 773L245 773L184 773L184 683L123 683L123 674L61 674L61 719L0 719Z" fill="#1565c0"></path></svg>